<svg xmlns="http://www.w3.org/2000/svg" width="524" height="417"><path fill="#229e9d" d="M274 7q5 1 9 4l4 3 1 2 8 6 32 24q35 25 45 67l1 2 2 29 1 18 1-1 4-2v-2l3-3 10-9 3-2 2-2 2-2q3-4 2-10v-3q-2-16-10-33h5q15 9 29 20v2h2a57 57 0 0 1 16 41v165q-6 0-10-4l-6-4-12-9-4-3-2-2-2-1-2-1q-4-5-3-11v-92l-4 3-2 2-32 29-22 20-9-5v-2l-2-1-8-6-26-24-5-2c0 28 0 28 9 55l2 3 8 13q3 2 2 5l-13-5-18-10-2-1q-6-3-13-1l-14 7-13 7-3 1-2 1-2 1-2 1-2-1v-4l-4-3-2-2-3-2-5-3-2-2-7-5-2-2-4-3q-2-3-6-3-6 2-10 6l-3 3-2 2-11 8-44 32-22 16-3-4V171q-3-32 19-57l23-17c8-5 8-5 11-5l-3 9c-10 19-8 41-8 61l-1 26v56l8-6 2-1 15-12 4-2v-3l1-68c0-37 9-70 36-97l17-14 10-7 2-1 29-22zm-4 51-2 2-2 2-16 11a81 81 0 0 0-36 54l-1 8v3l-1 63c0 8 0 8 3 16l7 5 12 9 2 1 10 8 1 1 4 3q4-5 3-11v-6l1-83v-3q0-14 6-26l1-2 8-12v-2h2l1-2q5 1 6 4l3 4 1 2q11 16 11 34 0 8 5 14c4 4 4 4 9 6v2l3 3 17 16 2 2 6 3v-29c1-25-1-50-19-69l-2-2-21-17-3-2-12-10c-4-3-4-3-9 0"/><path fill="#21939a" d="M395 92q8 3 15 8l2 1 16 12v2h2q16 17 16 39v167q-6 0-10-4l-6-4-12-9-4-3-2-2-2-1-2-1q-4-5-3-11v-92l-60 54-9-5v-2l-2-1-8-6-26-24-5-2c0 28 0 28 9 55l2 3 8 13q3 2 2 5l-13-5-18-10-2-1q-6-3-13-1l-11 6-3 1-13 7-3 1-2 1-2 1-2 1-2-1v-3h4l1-2 4-8q8-10 11-23l-1-2 1-5 1-14v-3l1-80v-3q1-24 16-42h2l1-3 4 1q18 21 18 47 1 9 9 14l4 3v2l2 1 6 5 13 12 7 6-1-61h2l1 8v43h2v2l6 1v-2h2l1-2 2-3h4q4-1 6-5l4 6-1 4h3l1 4h3v-10l3-13 2-1 1 4 1-1 4-2v-2l3-3 10-9 3-2 2-2 2-2q3-4 2-10v-3q-2-16-10-33z"/><path fill="#1d3874" d="m155 92-3 9c-10 19-8 41-8 61l-1 26v56l8-6 2-1 15-12 4-2q2-5 1-11v-3l1-29h1l1 38 2 1v-6h4l1-2 4-8q17-25 24-56h1l2 32-1 27c0 5 0 5 3 10l6 5 23 17 4 3 4 7c-1 12-10 24-17 33l-8-4-2-2-3-1-2-2-12-9-2-2-4-3q-2-3-6-3-6 2-10 6l-3 3-2 2-11 8-44 32-22 16-3-4V171q-3-32 19-57l23-17c8-5 8-5 11-5"/><path fill="#f29728" d="M395 92q8 3 15 8l2 1 16 12v2h2q16 17 16 39v167q-6 0-10-4l-6-4-12-9-4-3-2-2-2-1-2-1q-4-5-3-11v-92l-42 38-3 2-7 4 6-11q6-7 9-16l1-2a90 90 0 0 0 5-36v-6l3-2 1-3 1-2 3-1v-2l3-3 10-9 3-2 2-2 2-2q3-4 2-10v-3q-2-16-10-33z"/><path fill="#fdfdfc" d="M2 354h7q4 0 6 4l2 7 1 1 3 11c3 9 3 9 3 14h2v-2l6-21 1-3 1-4 1-3 3-4h8l4 2 2 5v3l1 3 8 24 4-12 1-4 1-3 1-4 3-9v-2l1-2 11-1 2 1-8 29-8 23-2 4H55l-5-13-1-3-6-18-1 2-3 9-1 4-7 19H18L8 382l-1-3-3-9-1-3-1-3-1-3zm251 0q5 1 5 5l2 3 1 2 2 3 6 12 2 3 1 2 1 4h2l1-2 5-11 1-2c9-17 9-17 13-19l9 1 1 48v7l-3 1h-6l-3-1v-9l-1-21-1 2-5 9-2 4-2 3-2 3-3 4h-7l-6-11-2-4-2-3-2-3-2-4-1 23v4l-1 4h-10v-56z"/><path fill="#fdfdfd" d="M151 351h5q3 3 2 8v47l-2 5h-7l-4-2-3 2q-9 3-18 0-8-3-11-11-3-11 1-21 5-9 14-12h8q5 1 9 4v-9l1-3v-5q0-5 5-3m-25 32q-3 5-1 11 2 5 6 7 5 1 9-1 5-2 5-8 1-6-2-10-8-8-17 1m278-32h5l3 1v9l1 22 3-3 3-3 2-2c7-8 7-8 13-8h8l1 3q-6 9-14 14l7 12 1 2 6 7 1 6h-13l-7-9-2-3-2-5q-4 2-6 5v5l-2 7h-11l-1-9v-41l1-3q-1-9 3-7"/><path fill="#fdfdfc" d="M476 368q10 4 13 13 2 7 0 13h-30q3 6 6 6 9 2 16-3 6 3 6 6v2q-9 9-21 7-8 0-14-5c-6-8-6-12-6-21q0-8 7-14l2-1q10-7 21-3m-18 15v2h20l-6-7c-7-1-9 0-14 5m-260-15q8 4 12 13v12q-3 2-7 1h-4l-19 1c3 4 3 4 8 6q7 0 12-4 4 0 6 3l2 4q-1 3-5 5l-2 1q-9 4-19 2-8-4-14-11-3-10 0-22 11-16 30-11m-18 14-1 4h20c-2-5-2-5-6-8q-8-2-13 4m167-13q4 3 7 8v28l-1 6h-15q-8 3-16 0-6-3-7-8-1-7 2-12 4-6 11-6h15q-2-4-5-6l-14 2h-4l-2-8 4-4q13-4 25 0m-20 27v5q4 3 7 2 6-1 9-6v-4c-9-1-9-1-16 3"/><path fill="#fdfdfd" d="M502 358h6l3 1v9h8l3 1v9l-10 1v17l1 4h9q3 5 2 9-4 4-10 3-7 0-12-3-6-9-4-22v-9h-5v-9h5v-7q0-4 4-4"/><path fill="#fdfdfc" d="M370 367h4l4 1 1 3 3-2q4-2 10-2l1 3v6l-1 3h-3q-6 2-9 6l-1 7v4l-1 3v12h-12v-40q0-4 4-4"/><path fill="#fdfdfd" d="M94 368h6l3 1v35l-1 7h-8l-3-1v-35q-1-9 3-7"/><path fill="#fbfcfb" d="m101 350 3 3v8q-3 4-7 3-4 1-7-3-2-6 1-10 4-3 10-1"/></svg>