<svg xmlns="http://www.w3.org/2000/svg" width="4997" height="3465"><path fill="#76ae01" d="M3924 191h8a248 248 0 0 1 56 6 395 395 0 0 1 184 102l44 43 2 2 10 11 8 9 22 25a464 464 0 0 1 44 57l2 2q29 42 54 86l2 3q25 45 46 91l1 3 8 21c4 11 7 18 18 24l9 4 14 8 3 2 27 19 2 1a502 502 0 0 1 60 55l7 7 19 24q22 29 40 61l1 2c28 49 43 107 43 163v3c0 82-21 163-94 322l-5 8a750 750 0 0 1-72 106l-15 20-31 36-15 16-5 6-12 13-3 2-18 17-17 15-23 20a464 464 0 0 1-57 44l-2 2a1283 1283 0 0 1-103 65l-2 2-31 17-13 7-20 10-3 1-4 2q-5 3-11 4v2l-3 4-7 2q-9 2-17 6l-46 20-22 9-2 1a1090 1090 0 0 1-100 33l-3 1h-3l-7 3-5 1-3 1-4 1-22 6-39 9-16 4-29 6h-2l-3 1-5 1q-17 4-36 6h-2q-59 9-118 2h-2l-13-2-12-3q-30-4-59-13l-3-1-28-9-2-1-16-6-3-1q-43-18-85-39l-3-1a965 965 0 0 1-98-57 1374 1374 0 0 1-221-173l-3-2-12-14-8-9-20-22-22-29-2-2q-18-26-34-54l-1-3a333 333 0 0 1-34-90 242 242 0 0 1-5-63l1-28q0-4-3-6l-3-2a62 62 0 0 1-15-27q-7-25 4-51c16-27 46-44 75-53l8-2q11-4 18-12l15-13c6-3 6-3 9-9v-82l2-95 2-20v-3c8-88 26-175 69-262l2-3c28-57 68-120 131-142q24-7 48-7h3c44 0 85 19 121 45l2 1a353 353 0 0 1 69 64 396 396 0 0 1 55 81l3-2c21-16 53-34 80-34v-3c4-82 19-163 111-329l3-5a259 259 0 0 1 53-50c39-30 88-46 139-45"/><path fill="#4b832a" d="M4409 1666h6l3 1c76 2 147 29 202 82l1 1 17 18 7 9a268 268 0 0 1 37 60c24 53 29 113 20 170l-1 3-14 69-5 22-19 90v2l-11 52-1 3-19 90v2l-11 52-1 3-2 11-5 20-2 12-1 4-1 3-63 301-22 102-1 3-11 53-1 3-15 73-1 3-21 102a437 437 0 0 1-167 272l-2 1a448 448 0 0 1-293 106h-326a312 312 0 0 1-241-97l-2-3a283 283 0 0 1-69-164q-3-39 3-79v-2l10-47 2-13 28-130v-2l2-6 1-8 1-3 15-72 66-310 1-2 14-66v-2l30-140v-2l58-272q7-31 16-61l1-3q8-23 19-43v6l19 1h2c92 0 184-20 364-76l3-1 17-5-2 3q-23 30-32 66l-1 3-8 40-3 11-35 170-4 19-5 23-18 86-13 61-1 2-74 351v2l-23 106v2l-14 64-4 20-2 11-1 5-1 2-1 6v3l-10 46-1 3-10 50-1 2-18 84v2l-14 66c-6 24-6 24-9 48v3q0 40 28 69a140 140 0 0 0 106 41h2q33 0 64-10l2-1q43-14 76-45l3-2 14-15 2-3a181 181 0 0 0 37-87l3-18 4-16 7-35 7-32 168-794 35-170 1-2 18-84v-2l14-67c7-30 13-62-3-91l-2-3c-16-27-45-43-75-51a218 218 0 0 0-61-6q3-4 8-5l2-2 3-1a841 841 0 0 0 86-49l16-10 43-27 47-33c8-5 8-5 13-5"/><path fill="#4a7729" d="M2965 1033v5l1 4c1 12 1 12-2 17l-12 7c-8 4-19 14-23 22l-4 1-3 1-3 1c-34 9-71 28-90 60l-7 14-1 2q-7 26 5 50 6 15 20 25v5l-1 3v6a364 364 0 0 0 69 237l28 41h-850l-682 2h-3l-654 3h-2l-91 1H351l2-13 1-4 16-80 78-396 2-6 270-1h3l152-1h70l1342-3 212-1h3l136-1h74z"/><path fill="#4a8129" d="M698 1667h321a389 389 0 0 1 85 7q72 14 128 62l2 2 16 15 3 3 17 19 2 2 23 34 1 2q24 41 32 86v2q7 37 4 74v3a459 459 0 0 1-12 75l-15 69H923l2-15 1-2 5-24 3-13 13-63 1-3 5-21 9-44 1-3c5-28 5-57-12-82l-12-14-2-2a154 154 0 0 0-110-37q-29 0-59 8l-2 1q-48 14-83 48l-3 3q-29 29-40 68v3l-12 53-4 17-18 85v3l-20 89q-7 26-6 52v4a98 98 0 0 0 25 67c31 34 81 38 124 41 84 6 168 19 283 67l3 2c44 21 89 51 119 91l1 2c42 54 56 122 48 190q-7 46-18 91l-64 297-2 8a482 482 0 0 1-33 104q-24 50-60 93l-1 2-34 36-3 3-12 11-7 6-24 20a482 482 0 0 1-69 46c-73 43-153 55-235 55H330c-48 0-48 0-68-2l-3-1q-36-3-68-15l-2-1c-52-17-98-53-130-96l-2-2-20-31-1-2c-46-83-39-169-20-257l9-40 2-8h382l-26 131-4 19-8 41-1 3q-9 39 11 74a106 106 0 0 0 40 35 158 158 0 0 0 82 19h3q32 0 62-9l2-1q48-15 84-49l2-2c20-19 33-46 39-72l1-4 8-38 2-10 65-306c7-34 7-34 9-69v-2c0-27-6-51-26-71-25-25-64-31-98-33h-16c-86-3-172-9-312-55l-3-1q-45-21-82-55l-2-2q-12-11-23-26l-2-3c-30-41-42-91-44-141v-2a453 453 0 0 1 13-110l19-91 36-169 1-4a419 419 0 0 1 87-162l1-2 16-17 5-6 29-27 22-20c65-52 140-90 223-102l3-1q35-4 71-3"/><path fill="#4a7f29" d="M2581 1667h55l313-1h121l6 1 3 5 6 5 2 2 58 45q42 32 87 60l3 2q50 31 101 58l3 2 58 28a1327 1327 0 0 0 132 53l1 6 1 4 1 4v2l5 30 1 4a531 531 0 0 1 3 76 576 576 0 0 1-4 74c-9 82-31 164-108 322l-2 3a606 606 0 0 1-83 108l-30 29-6 6-23 19q-48 40-106 68l-3 1q-80 40-167 49l-4 1-14 1q-37 3-75 2h-182v2l-5 24v3l-2 10-3 11-73 345-69 327-2 7h-386l1-6v-3l4-15v-4l2-10 3-10 72-340v-2l15-70v-3l16-74 1-2 14-70 1-2 45-214 1-2 14-70 1-2 45-214 1-2 14-70 1-2 14-65v-3l15-69v-2l32-152 1-2 32-151v-2l14-64 1-4 18-88 1-3v-3q3-4 8-3m342 183-25 116-9 42-18 85-1 3-16 76-1 2-33 152v3l-18 81v2l-28 130v3l-1 3-1 2v3h94a124 124 0 0 0 98-39l18-18a433 433 0 0 0 66-100q22-43 38-90l1-2 20-67 1-4q17-69 23-140v-4l1-38v-4c0-56-5-121-43-166l-1-2a88 88 0 0 0-58-29z"/><path fill="#4b842a" d="M1873 1667h117l8 80 46 505 90 976v3l20 213v3l1 3v15h-386l-5-60v-2l-1-11-8-91v-6l-13-161v-4l-1-3v-17l-425 1-13 26-8 14-12 25-8 15-1 3-19 35-1 3-13 25-1 3-19 37-1 2-81 158-1 2-4 6H956l4-11 1-3 2-3 4-8 1-2 33-63 13-27 12-23 36-71 36-69 13-27 12-23 35-68 26-52 12-23 36-71 36-69 13-27 12-23 35-68 26-52 12-23 35-68 26-52 12-23 36-71 36-69 13-27 12-23 35-68 26-52 12-23 36-71 36-69 13-27 12-23 35-68 26-52 12-23 35-68 37-73 14-27zm-185 727-140 271-81 156-51 97-1 2-7 13-1 3-4 6-1 4h327l-5-70-1-23-2-18-4-64v-2l-28-375z"/><path fill="#010101" d="M4268 835h3q11 0 21 5v2h2q4 2 6 6l-1 2-2-1-2-1-3-1c-16-7-37-1-53 4l-3 1q-6 1-8 6l-2 5-1 3-3 10-1 2a666 666 0 0 0-20 92l-9 62-4 25-12 82-1 3c-11 70-11 70-19 105l-7 28a558 558 0 0 1-39 119l-1 2a667 667 0 0 1-127 201l-18 18-27 26-27 21-2 2a542 542 0 0 1-86 50 477 477 0 0 1-116 33l-4 1-4 1h-5l-8 1-5 1-28 1h-23q-33 1-64-3h-2l-46-8-25-6h-2a551 551 0 0 1-68-24q-46-19-82-54l-2-1c-30-29-48-68-64-106a1235 1235 0 0 0-46-89 469 469 0 0 0-59-86l-20-24-8-10-20-22-2-2q-8-9-18-16l-3-4-10-3q-25-4-42-21l-2-2c-10-10-17-27-22-41l-3-5-2-5-1-2-2-1-4-4q-3-4-6-3-21 3-34 21l-2 2-1 2h-2q0-10 5-20c10-11 28-16 43-17q28-2 55 4-1 4-5 6h-4l-3 2 2-6-2 2-4 3-1 1q-5 4-11 3l-3 1-3-2-2 1-4 3-3 3 2 6 1 2 1 2q7 11 10 23h2l3 5q11 20 31 26l2 1q26 6 52 6l75 2 52 5 11 2 47 6c84 11 164 11 398-93l2-1 54-39 43-31 2-1 66-44 3-2a2060 2060 0 0 1 121-69l10-5 46-20c66-29 124-61 153-131l1-6q-25 13-47 30l-7 3q1-7 5-11l3-2 3-2 5-1v-2l4-3 21-14 3-2 4-3q10-6 21-10h3l2-1v-2l8-3 3-1z"/><path fill="#dde3e2" d="m4165 951-5 11-7 16h-2l-1 2-5 13h-2v2l-5 11-1 2-34 55h-2l-1 2-5 8-1 3h-2l-1 2-4 6-1 2-2 2-2 2-40 50-21 22-15 16-20 19-9 8-23 21-31 24q-48 37-100 66l-2 1q-68 38-140 65l-2 1a889 889 0 0 1-108 32h-2q-64 14-129 15h-2l-37-1-3-1-31-3h-2l-54-8h-3q-6 1-9-5l-8-14-4-10-6-11-5-10-1-2-23-48-2-3-1-3-1-2-1-5 18 1h2l98 12q20 3 39 2h22q43 1 84-8l3-1 5-1 14-1v-2l3-1 56-18 3-1 9-4 3-2q13-4 26-12l2-1 3-1 7-2v-2l2-1q50-27 96-61l2-2 73-52a1476 1476 0 0 1 123-78l3-2 38-21 3-2 25-11 6-2v-2l7-3 2-1 8-2v-2l9-2v-2l9-2v-2l7-1v-2l7-1v-2l18-6v-2l4-1 2-1 5-1v-2l2-1 25-12 3-1 7-3v-2l5-1v-2l2-1 10-6h2v-2l5-4 8-6z"/><path fill="#e2e6e5" d="M3934 469h3q16-1 32 3l3 1 8 2 3 1a180 180 0 0 1 71 44 240 240 0 0 1 34 39 425 425 0 0 1 69 119l11 28 10 30-3 2-25 18-2 2a389 389 0 0 0-46 42l-4 4h-2l3-21c10-45-3-97-28-135q-20-32-57-45l-3-1q-26-4-47 9c-21 14-34 40-39 65v3l-1 2q-8 47 7 92l1 3a181 181 0 0 0 33 59c12 15 31 28 50 31h13q10 1 19-2-1 7-6 12l-1 2q-4 6-9 8l-2 2-8 6-1 1-71 38-3 1-43 16-2 1a301 301 0 0 1-59 15q-24 5-50 7l-21 1h-6q-5-18-5-37l-2-16-2-25-2-30v-3l-1-3v-52c-1-62-1-62 5-73v-5a432 432 0 0 1 21-99l4-16 4-11 14-33c13-34 39-65 70-86h4v-2q12-6 26-10l3-1q15-4 30-3"/><path fill="#cc7073" d="M4153 1217a790 790 0 0 1-42 154l-2 2-22 52-1 2q-5 11-14 18l-4 3-3 1-8 6q-34 25-70 46l-2 1q-90 51-190 77l-2 1-57 13-3 1a796 796 0 0 1-113 10l3-11 1-2 1-3 3-5 1-2 7-16 1-2 7-13 2-3 3-8h2l3-9h2v-2q3-9 9-16l1-2 11-18 2-2 3-5h2v-2l3-4 5-7c7-11 7-11 12-15l4-5 5-7 8-9q18-23 40-42l7-6 19-16 2-1c35-27 72-37 116-38q22-2 43-9l5-1q-3 6-9 10l-2 1-6 5-2 1a160 160 0 0 1-49 24q12 0 23-5l6-1v-2l4-2a194 194 0 0 0 56-38 300 300 0 0 0 37-38q15-17 33-31l3-2q15-13 33-19l3-1q34-11 70-8"/><path fill="#010201" d="M3905 391h5q19-1 37 5l5 1a116 116 0 0 1 35 13l14 7v2l3 1q6 2 10 6l3 1q25 16 47 37l2 2 25 27a426 426 0 0 1 76 133l16 46 1 3 9 33 1 3 1 2 1 3v7l2-1c27-12 27-12 41-15h2q40-10 76 10 39 25 50 71l1 4 1 4 1 27h-2l-1-7-1-2-2-13q-6-31-26-54l-2-2a95 95 0 0 0-61-32q-30-3-56 10l-2 1a225 225 0 0 0-56 35 545 545 0 0 0-136 153l-2 4-15 20 6-11 1-3 6-12 1-3 3-6-2 1-28 16q-70 40-148 54l-4 1q-34 6-70 7l-3 1-10-2q-4-7-5-15l-7-30v-3l-2-6-1-6-2-11-5-25-1-3-6-42-2-23v-2a730 730 0 0 1 3-145v-3l3-23 2-13 2-21 3-13 2-13 3-11 2-9a332 332 0 0 1 14-51l4-9 3-7 7-16 4-9 6-10 1-2q11-17 24-30l2-2q21-21 51-31l3-1q18-4 37-3m-10 83-2 1-18 8v2h-2c-11 3-20 14-28 21l-3 2c-19 19-35 46-45 71l-1 3-12 33-4 10-3 11-4 18q-11 39-15 79l-1 4a423 423 0 0 0-4 82v40l1 4 2 41 2 19 2 17c1 17 1 17 5 34l40-2a366 366 0 0 0 54-10h3l8-2q21-5 42-13l35-13 11-6 2-1 7-3 2-1a689 689 0 0 0 65-39l2-2 7-9 1-1 3-8h-2a76 76 0 0 1-69-18l-2-2a163 163 0 0 1-49-98q-7-35 0-69v-2c6-24 18-50 39-64q23-14 47-9a91 91 0 0 1 39 22 165 165 0 0 1 50 102l1 26v3q1 16-3 31l-2 18 8-6 2-2 5-6 10-9 5-5 18-16q16-14 34-24-4-19-13-37l-4-12-9-18-3-8-7-15-1-3a473 473 0 0 0-109-141l-2-2a156 156 0 0 0-135-26"/><path fill="#d3dcdd" d="m4071 1454-4 9-1 3-2 3-2 4-20 32-2 2c-25 39-25 39-34 48l-1 2q-2 5-7 8l-1 2-4 6-7 7-6 8-5 5-12 12-7 8q-7 8-15 14h-2l-1 2c-5 9-17 16-25 22l-2 1a436 436 0 0 1-148 74v2l-57 13-12 2h-3l-12 2q-26 3-53 2h-3a279 279 0 0 1-68-6h-2l-5-1c-35-5-35-5-47-10l-8-2-23-6-14-5v-2h-2l-16-6-3-1q-20-8-38-18l2-24v-4l7-30c7-26 19-55 43-70h3v-2l9-3v-2l3-2 2-1 63-28 36-14 3-1 16-3v2l-6 2v2l-3 1q-38 18-68 47l-2 2q-6 8-6 17 0 7 4 10l2 3 11 7 3 1 24 7h3a234 234 0 0 0 61 4h10a534 534 0 0 0 115-10h2a456 456 0 0 0 60-15l51-15 3-1q55-19 109-46l3-2q36-17 68-39l2-2 36-25q2-2 5-2"/><path fill="#fdfdfc" d="M2435 1160h3c32 0 60 7 85 29 21 23 26 53 25 83-1 54-26 108-65 145a164 164 0 0 1-62 36c-33 12-78 13-110-2a92 92 0 0 1-48-51 185 185 0 0 1 20-147l2-4c21-38 57-70 100-83h3l2-1q23-6 45-5"/><path fill="#fdfdfd" d="M1138 1160h2c23 0 44 0 65 9l2 1q34 15 48 50c12 35 7 77-5 111l-1 2q-13 42-44 75l-1 2c-31 32-74 50-118 51-30 1-60-4-84-24l-2-2a92 92 0 0 1-30-58v-23c0-50 19-102 53-139l2-2c29-31 70-53 113-53"/><path fill="#fdfdfc" d="M2015 1164h99c35-1 72 3 98 28 20 20 26 45 26 72q0 20-4 39v2c-9 47-36 94-75 122q-20 14-44 21l-2 1q-32 9-66 8l-11-1h-89l1-5v-3l3-10v-4l9-35 7-32 4-18 27-112v-2l13-54 1-3v-3z"/><path fill="#e8ebe8" d="m3329 667 5 5 2 2a211 211 0 0 1 54 99l7 22 11 39 8 33 1 3c6 31 6 31 6 41l-10 4v-2q-2-30-14-58l-2-3c-11-23-28-44-51-53l-18-2h-2q-20 0-35 15c-23 24-28 56-27 88v4a143 143 0 0 0 47 101l-2 2q-15 20-28 41l-2 3-2 2-3 4-3 7q-1 6-6 8-21 5-41 3l-32-1-16-4-10-3-3-32v-3q-3-38-2-76v-3a584 584 0 0 1 5-87c7-58 23-122 59-170l2-3c14-17 33-35 55-39 19-1 32 2 47 13"/><path fill="#165b00" d="M3924 191h8a248 248 0 0 1 56 6 395 395 0 0 1 184 102l44 43 2 2 10 11 8 9 22 25a464 464 0 0 1 44 57l2 2q29 42 54 86l2 3q25 45 46 91l1 3 8 21c4 11 7 18 18 24l9 4 14 8 3 2 27 19 2 1a502 502 0 0 1 60 55l7 7 19 24q22 29 40 61l1 2c28 49 43 107 43 163v3c0 82-21 163-94 322l-5 8a750 750 0 0 1-72 106l-15 20-31 36-15 16-5 6-12 13-3 2-18 17-17 15-23 20a464 464 0 0 1-57 44l-2 2a1283 1283 0 0 1-103 65l-2 2-31 17-13 7-20 10-3 1-4 2q-5 3-11 4v2l-3 4-7 2q-9 2-17 6l-46 20-22 9-2 1a1090 1090 0 0 1-100 33l-3 1h-3l-7 3-5 1-3 1-4 1-22 6-39 9-16 4-29 6h-2l-3 1-5 1q-17 4-36 6h-2q-59 9-118 2h-2l-13-2-12-3q-30-4-59-13l-3-1-28-9-2-1-16-6-3-1q-43-18-85-39l-3-1a965 965 0 0 1-98-57 1374 1374 0 0 1-221-173l-3-2-12-14-8-9-20-22-22-29-2-2q-18-26-34-54l-1-3a333 333 0 0 1-34-90 242 242 0 0 1-5-63l1-28q0-4-3-6l-3-2a62 62 0 0 1-15-27q-7-25 4-51c16-27 46-44 75-53l8-2q11-4 18-12l15-13c6-3 6-3 9-9v-82l2-95 2-20v-3c8-88 26-175 69-262l2-3c28-57 68-120 131-142q24-7 48-7h3c44 0 85 19 121 45l2 1a353 353 0 0 1 69 64 396 396 0 0 1 55 81l3-2c21-16 53-34 80-34v-3c4-82 19-163 111-329l3-5a259 259 0 0 1 53-50c39-30 88-46 139-45m-47 14h-2l-21 6-7 2q-11 4-21 10l-2 1-21 11v2l-3 1-4 3-6 3-6 5-5 4-10 8-2 2-6 6-2 2-6 5-1 2-9 11-4 5-6 8-5 5-3 5-3 4-5 7-7 12a447 447 0 0 0-38 73l-1 2-4 14h-2l-1 3-7 21-7 25-3 12-1 2q-15 67-20 135v2l-1 5-1 5-1 7v8l-1 15-3-31q-17 2-33 9l-8 2c-24 7-47 28-59 49q-7 11-10 22l5-20c7-18 7-18 13-24q-1-7-4-13l-2-4-27-42-2-3-32-38-24-23-7-6-28-23-3-2-10-6-5-4q-2-2-6-2v-2l-4-2-3-1-4-1v-2l-23-8v-2l-31-7-3-2-17-1h-2q-33-1-64 12v2l-2 1-3 1-2 1q-17 7-30 22l-7 5-8 9-4 4q-25 29-44 63l-2 3-5 11-7 16q-22 44-37 90l-1 4-2 11h-2a1206 1206 0 0 0-30 312v46h-2l-6 4-9 7-11 11 8 1q41-1 80 14l3 1a90 90 0 0 1 32 23l3 2 4 2v2l-3-2a167 167 0 0 0-77-32l-2-1h-5l-27-2h-2c-37 0-73 14-100 40q-8 7-12 16l-2 3c-6 12-5 29 0 42q6 17 20 29l3 3q6 6 13 8h-3l-3-1h-7q-4 5-3 11v2a270 270 0 0 0 9 95h2l1 4 5 16 1 4 17 39h2v2l4 9h2v2l5 10h2l1 3 4 8h2l1 2q2 6 6 10l1 2a553 553 0 0 0 47 60l7 8 77 73a589 589 0 0 0 64 51q35 26 71 50l3 2 33 22 3 2 9 5h2l1 2h2l2 1 1 2 12 5v2q6 4 12 5v2l9 3v2l3 1 14 7 7 3v2l2 1 23 10 2 2q48 24 99 42l4 1q49 18 100 23h3l2 1 4 1h7l3 1h3a712 712 0 0 0 217-27v-2h3l13-3 3-1 50-13v-2h2l22-7 114-41 6-3 6-3 13-5 39-19 20-10v-2l3-1 7-3q3-3 7-3v-2l3-1 9-4 3-2 3-2 2-1a1007 1007 0 0 0 122-78l2-2a1012 1012 0 0 0 160-150l29-37a979 979 0 0 0 124-222l2-6 5-14 1-2 14-45v-2l12-60 1-3v-5c5-18 3-39 3-57l-2-43-1-10-5-28-8-30-6-14-5-13c-14-37-38-72-64-103l-1-2-33-35-3-3-18-17q-34-28-70-50l-2-1-7-3-1 11-1-3a1323 1323 0 0 0-73-153q-31-54-69-104l-2-2a762 762 0 0 0-59-70q-9-11-20-21l-11-11-2-2-12-12-7-5-20-17a334 334 0 0 0-269-85"/><path fill="#fdfdfc" d="M1639 1164h68l8 61v4l7 64 8 69 4 37v2l5 37v4l1 4v10h-65l-3-31v-10l-1-7v-2l-1-6v-15h-103l-2 6-3 5-1 3-2 3-2 3-15 27-13 24h-62l8-15 1-3 51-87 77-133 2-3 25-44 1-2q4-6 7-5"/><path fill="#010101" d="m4040 614 8 7 2 2a167 167 0 0 1 51 103l1 26v3c0 23-1 49-18 66l-13 15-21 26h-5l-1 3q-25 7-48-5-11-5-20-13l-2-2c-28-23-44-61-50-96v-3q-8-34 0-69v-2c6-24 18-50 39-64q39-23 77 3"/><path fill="#1a5c04" d="M4268 835h3q11 0 21 5v2h2q4 2 6 6l-1 2-2-1-2-1-3-1c-16-7-37-1-53 4l-3 1q-6 1-8 6l-2 5-1 3-3 10-1 2a666 666 0 0 0-20 92l-9 62-4 25-12 82-1 3c-11 70-11 70-19 105l-7 28a558 558 0 0 1-39 119l-1 2a667 667 0 0 1-127 201l-18 18-27 26-27 21-2 2a542 542 0 0 1-86 50 477 477 0 0 1-116 33l-4 1-4 1h-5l-8 1-5 1-28 1h-23q-33 1-64-3h-2l-46-8-25-6h-2a551 551 0 0 1-68-24q-46-19-82-54l-2-1c-30-29-48-68-64-106a1235 1235 0 0 0-46-89 469 469 0 0 0-59-86l-20-24-8-10-20-22-2-2q-8-9-18-16l-3-4-10-3q-25-4-42-21l-2-2c-10-10-17-27-22-41l-3-5-2-5-1-2-2-1-4-4q-3-4-6-3-21 3-34 21l-2 2-1 2h-2q0-10 5-20c10-11 28-16 43-17q28-2 55 4-1 4-5 6h-4l-3 2 2-6-2 2-4 3-1 1q-5 4-11 3l-3 1-3-2-2 1-4 3-3 3 2 6 1 2 1 2q7 11 10 23h2l3 5q11 20 31 26l2 1q26 6 52 6l75 2 52 5 11 2 47 6c84 11 164 11 398-93l2-1 54-39 43-31 2-1 66-44 3-2a2060 2060 0 0 1 121-69l10-5 46-20c66-29 124-61 153-131l1-6q-25 13-47 30l-7 3q1-7 5-11l3-2 3-2 5-1v-2l4-3 21-14 3-2 4-3q10-6 21-10h3l2-1v-2l8-3 3-1zm-57 53-2 3q-12 22-27 41l-1 2-10 10-6 7-4 2-5 4-7 5v2l-2 1-9 5-3 1v2l-5 1v2l-2 1-19 9-16 7v2h-2l-9 3v2h-2l-10 4-3 1-3 1v2l-7 1v2l-7 1v2l-9 2v2l-9 2v2h-2l-9 4-4 1-2 1v2h-2l-8 4-7 3q-21 8-40 21l-18 10-32 19-18 11q-22 12-43 28l-3 1a1792 1792 0 0 0-99 71q-48 36-101 64v2h-2l-9 4-3 2h-2q-34 18-69 29l-4 1-23 6v2h-3l-16 2-6 2h-3q-40 8-79 7h-9a546 546 0 0 1-72-4h-3l-68-9-25-2h-4l-9-2h-9l-2-1-17-1h-3q-49-4-99-3l3 3 1 2 13 13 21 22a338 338 0 0 1 39 47l1 2 12 16 2 3 25 38a807 807 0 0 1 55 104c22 49 22 49 53 92l3 3a186 186 0 0 0 71 52l37 17c7 3 7 3 15 4v2l49 14q26 8 53 10l21 4q23 3 47 2h3q26 1 51-2l3-1 20-3h2l9-2 10-2 18-4 21-5v-2h2l19-6 19-6 14-6 9-4a527 527 0 0 0 93-58l3-2 17-15v-2l2-1q13-7 22-21l7-7 6-6 6-6 6-8 7-8q3-1 4-6l6-5 6-10 19-26 2-2 32-53 2-3 6-13 3-3q4-4 4-9l5-10 13-26 1-2 17-44q27-68 38-141-37-2-73 9l-3 1c25-10 51-11 77-12l21-114v-2l12-81c13-100 13-100 24-125z"/><path fill="#4a7729" d="m1160 1213 3 1q8 3 15 9l2 2c11 9 17 26 18 40v6c1 37-12 79-37 106l-1 2a94 94 0 0 1-64 31q-25 2-44-13a63 63 0 0 1-19-44v-10a115 115 0 0 1 4-34c8-33 25-67 54-85q33-21 69-11m1304 9a61 61 0 0 1 20 52v2q0 24-7 47l-1 2a149 149 0 0 1-35 59 87 87 0 0 1-57 26q-25 3-45-13a60 60 0 0 1-19-43v-10a143 143 0 0 1 4-36c8-33 25-66 55-85q15-9 32-12h2q29-6 51 11"/><path fill="#fcfdfc" d="M1447 1164h61l-2 14-1 4-1 4-17 71-7 31-7 30c-17 78-17 78-39 104l-2 2c-18 22-47 35-74 38q-25 3-48-3l-3-1q-25-6-39-28-8-17-8-35v-3l2-22h59v15q2 12 10 19 16 8 34 3 19-6 29-24 12-29 16-62l3-10v-2l7-28 7-32 4-18 8-35z"/><path fill="#020200" d="M3318 601c42 34 62 90 78 140l1 3a709 709 0 0 1 28 121l1 4 1 19h2l1 19-7 2-3-17q-7-39-18-78l-1-3-7-25a361 361 0 0 0-28-68c-14-25-31-52-59-62q-25-4-48 9l-15 11-2 1c-50 45-69 128-76 192l-3 26q-2 29-1 57l1 69v2l1 12v4l3 28 4 1 8 2q21 6 41 5h9q18 1 36-2l-2 8-10 1v2h-25q-26 1-51-5l-2-1c-20-6-20-6-24-11l-1-10-1-2-1-30v-3l-2-20q-3-39-2-79v-3a860 860 0 0 1 3-85 561 561 0 0 1 35-154l1-3 4-9 1-2c14-33 34-63 68-77q34-10 62 11"/><path fill="#fdfdfd" d="M806 1164h61l-5 25-1 2-4 17v2l-13 55-14 62-8 32-11 47h126l-3 17v3l-1 4-1 3-2 7-4 16H738l2-13 1-3 1-3 8-36 4-18 27-112v-2l7-28 7-31 6-24v-3l1-3z"/><path fill="#020202" d="M3362 806q18 13 29 32l2 3q20 34 20 74l3-2q3-2 7-2v-2l7-2v-5l1 4 36-8-8-1h-14l-2-2 10-3v2l2-1h7l2 1h6l7 1v5l-16 6q-24 7-45 19l-4 1-3 2-2 1-6 4q-2 3-5 2v2l-5 4-3 1-6 3v2l-4 3-11 9-4 2a227 227 0 0 0-48 52h-2l-1 2-5 7c-23 28-39 63-54 96-3-8 3-18 6-26l2-9h-8q4-2 10-2v-2l2-6-3 1q-12 3-26 2h-28l-17-2v-1l10 1h25c21 1 21 1 41-4q4-4 6-12l4-6 9-13q11-19 24-35l-2-2a145 145 0 0 1-45-102v-2q-3-50 28-88c20-19 48-18 71-4"/><path fill="#4a7729" d="M2064 1215h48q26-1 45 15l2 2q14 14 15 33v13q0 17-4 33l-1 2q-7 33-28 59l-2 2q-12 14-29 22l-3 1q-29 12-61 9h-26l2-14 1-4 1-4 8-31v-4l14-57 10-43 3-16 1-3z"/><path fill="#fcfcfc" d="M3993 609q22-1 40 14c10 9 10 9 10 15 0 18-17 36-29 49l-5 6c-15 17-38 38-61 41-8 1-8 1-12-2q-6-8-5-19v-2c-1-31-1-31 5-45l1-2q9-25 27-43l2-2q11-10 27-10m-635 205c9 8 9 8 10 14-1 18-18 34-29 46l-2 2c-13 13-33 34-53 35q-6 1-10-3-6-11-4-23v-3c0-25 11-51 29-69 17-15 42-13 59 1"/><path fill="#4b782b" d="M1656 1220h2a846 846 0 0 1 9 97v22h-75l5-11 2-3 2-4 1-2 36-66z"/><path fill="#185b03" d="M4329 725a111 111 0 0 1 40 71l1 27h-2l-1-7-1-2-2-13a116 116 0 0 0-28-56 95 95 0 0 0-61-32 114 114 0 0 0-58 11 225 225 0 0 0-56 35q-27 22-51 46l-1 1a304 304 0 0 0-33 37l-9 11q-22 28-42 58l-2 4-14 22-1-2 5-9 4-9 17-31-4-1 6-3 1-2 5-9 5-8h-2v-2l3-1q7-1 10-9l4-4 1-3 9-10 1-2 14-16 8-14v-2l1-2 1 3-1 2 14-13 11-11 5-5 18-16q21-16 44-30l3-1 2-2 3-3 5-2 3-2 4-1 4-2 27-9h2q48-12 88 18"/><path fill="#468300" d="m3007 1209 6 6 3 3 3 5 1 2 7 15a101 101 0 0 0 20 33q15 16 35 19c12 2 18 5 26 14l4 3 29 30 38 48 2 3 2 4h-2v-2l-2-1-5-4-2-2-2-4q-4-10-13-15-5-3-5-7l-3-4-2-2-2-2-2-2-8-8-2-4h-2l-3-4-9-9-7-6q-12-10-28-10v-2h-2q-20-1-35-13v-2l-2-1q-11-4-16-15l-3-6-2-3-3-7q-5-9-5-19h-2l-1-10h-2l-2-3-6-2q-7 2-13 6l-4 1q-5 1-8 4l-6 2-3 1-3 1q-2-4-2-9v-3q0-4 3-7v3l-2 11 8-8a51 51 0 0 1 25-17q4-2 9-1"/><path fill="#1c5d06" d="M3453 892v2l2-1h7l2 1h6l7 1v5l-16 6q-24 7-45 19l-4 1-3 2-2 1-6 4q-2 3-5 2v2l-5 4-3 1-6 3v2l-4 3-11 9-4 2a227 227 0 0 0-48 52h-2l-1 2-5 7c-23 28-39 63-54 96-3-8 3-18 6-26l2-9h-8q4-2 10-2v-2l2-6-3 1q-12 3-26 2h-28l-17-2v-1l10 1h25c21 1 21 1 41-4q4-4 6-12l4-6 9-13q11-19 24-35l-1-2h2q4-2 7-7a333 333 0 0 1 93-79l5-3q3-2 7-2v-2l7-2v-5l1 4 36-8-8-1h-14l-2-2z"/><path fill="#023400" d="M3647 1067h4q3 0 5 2 3 7 0 16l-4 9h-2l-1 2q-3 9-12 11l-5 2c-21 7-21 7-36 21h-2a81 81 0 0 1 10-28q11-22 32-34z"/><path fill="#053900" d="M3290 1138q5 1 9 6 9 13 12 28l-1 3-3-1-4-2-2-1-12-4q-5-1-8-7l-2-10c2-5 5-12 11-12"/><path fill="#407d00" d="M4213 862q1 6-2 11l-1 2q-2 7-5 7l-2 1-13 5-3 1-6 4-7 3-6 3q-6 5-14 7l-2-1 2-4 1-2q2-4 6-5l8-5q21-15 44-27"/><path fill="#a0b7c1" d="m4028 887 2 1-81 45-3 1-9 4-4 1-3 2-3 1h-6l7-3 5-1v-2l3-2 45-25 35-16 9-4z"/><path fill="#7795a2" d="M3411 848h1c11 52 11 52 11 63l-10 4v-2l-5-34-1-5h2l1-5 1-3-1-7v-6l1-3z"/><path fill="#448000" d="m3061 1201 7 1q-1 4-5 6h-4l-3 2 2-6-2 2-4 3-1 1q-5 4-11 3l-3 1-3-2-2 1-6 4-3 2-3-5-2-3-3-5 46-4z"/><path fill="#bac9cf" d="m3517 1620 19 2 15 1 18 2h29l6 2-80 1v-2l-2 1q-3 1-7-2zm87 5 3 1Z"/><path fill="#438000" d="M3657 1072q4 7 2 15-4 16-18 24-11 4-22 4v2l-10 5-2 1-2 1-2-1q15-12 33-16 9-3 14-13h2zm-52 52 1 2-2-1z"/><path fill="#619c00" d="m4272 859 1 2 4 1q-5 6-13 5c-11 0-22 0-30 8q-4 4-4 10l-2 4-4 8v4l-1 2h-2l-3 13h-1q1-11 6-23l4-13q3-9 12-15h9v-2h8l2-1 7-1q4 1 7-2"/><path fill="#589400" d="M4205 959h1l-1 16-1 2-7 37-2 20-1 3-5 20v-12l4-28 2-14 4-28 2 2z"/><path fill="#5d9900" d="m4207 876 1 3q-9 7-20 10l-7 4-7 3-6 3q-6 5-14 7l-2-1q1-4 4-6l7-4 3-2 2-1 3 1 7-5h2l5-2 6-3 12-5z"/><path fill="#83bb00" d="M3648 1108v2q-11 9-26 12a56 56 0 0 0-22 10l-2 1h-5l2-2 8-7 2 1 1-1c8-7 8-7 13-7v-2l13-3z"/><path fill="#a6aeaf" d="M3164 878h1v27l-1 8v7q0 3 2 5v10l-1 8q-3 7-3 16v37h-1v-45q-1-37 3-73"/><path fill="#599500" d="m3007 1221 1 3 2 1 3 3v2h-2l-2-3-6-2q-7 2-13 6l-4 1q-5 1-8 4l-6 2-3 1-3 1q7-9 19-13l6-2 3-2q6-2 13-2"/><path fill="#5d9900" d="M3026 1266q4 3 5 8 4 7 11 11l2 2v2l2 1 9 5q17 8 35 10l11 4h-10l-4-1h-3v-2h-2q-20-1-35-13v-2l-2-1q-12-4-16-15l-2-3z"/><path fill="#8c393b" d="m4041 1249 2 1-61 61-2-1 2-2 12-12 17-18 12-12 3-3z"/><path fill="#c6d2d6" d="M3627 1624v2l-4-1zm-7 0 3 3-26 3-47-1v-1h3l55-2z"/><path fill="#386f39" d="m4132 771-5 7-2 2-2 3-2 2-16 16-3 2-2 2-1 2-6 3 3-11 1 3-1 2 14-13 11-11 8-8z"/><path fill="#758f9c" d="m4028 887 2 1-27 16-3 2-15 8-3 2-4 1v-3l5-3 3-1q6-4 13-5l1-3q7-5 16-8l10-6z"/><path fill="#924142" d="m3812 1574-40 11c-29 7-29 7-37 7l12-4h2l9-1 1-3h5l10-2h2l21-6h2l6-2z"/><path fill="#a6bac5" d="m3517 1620 19 2 15 1h10l3 1q3 0 5 2h-36v-2h-2l-15-1z"/><path fill="#8fa7b1" d="M3411 848h1l3 18v2q0 8-4 14l2 1-4 2-2-11h2l1-5 1-3-1-7v-6l1-3z"/><path fill="#4e8b00" d="M3155 1359q4 2 7 6l2 2 2 2 1 3 9 11 2 2 5 9h-2v-2l-2-1-5-4-2-2-2-4q-5-11-16-17z"/><path fill="#438000" d="M3453 892v2l2-1h7l2 1h6l7 1v5l-5 1v-2q-10-2-21-2h-6l-2-2z"/><path fill="#437254" d="m4062 1780-21 9-16 7c-9 4-9 4-13 3h2v-2l8-1v-2c24-10 24-10 29-10v-2l7-2z"/><path fill="#d4dddf" d="M3941 481h10l7 3h-9q-25-4-48 4l1-3q11-4 23-4l6-1z"/><path fill="#9aa8ac" d="m3865 489 2 1-2 2a237 237 0 0 0-32 30q2-8 9-13l3-3z"/><path fill="#97b0bb" d="m4014 889 2 3q-7 8-17 11 4-8 12-12zm-16 14 1 2-3-1z"/><path fill="#3c7c00" d="m2932 1259 4 1-2 2-1 8v2q-2 22-1 45h-1l-1-23v-7q0-15 2-28"/><path fill="#448100" d="m4186 870 3 1-1 1-28 23-1-3q5-7 13-12h3v-2l5-4z"/><path fill="#72af00" d="M3636 1113q-6 5-13 6l-2 1h-7v-2l5-1v-2c13-4 13-4 17-2"/><path fill="#2c6d00" d="M3260 1089v6l3-1-10 24c-3-8 4-21 7-29"/><path fill="#317000" d="M3515 690v2l1 2 3 1-4 8-1 3-1 2-1 2-3 6h-1q1-13 7-26"/><path fill="#7e97a3" d="m3978 918-11 6-3 2q-7 4-15 6l1-3 5-1v-2l8-2 1-3 5-2 2-1z"/><path fill="#6da600" d="M3639 1779h23v2l-10 1h-3q-8 2-15-1 2-3 5-2"/><path fill="#612425" d="m3903 1357 2 1 9-1-10 5h-3q-9 3-20 3l10-4 10-3z"/><path fill="#357500" d="M3120 1138q6 2 8 5l7 7 3 2 4 3v2l-10-6-14-9 3-1z"/><path fill="#b8c2c4" d="m3257 665 2 1-23 21-3-1q11-12 24-21"/><path fill="#5c9900" d="m3013 1230 4 7v3l1 3 7 19 1 2-1 2q-9-11-9-26h-2z"/><path fill="#94a6ae" d="M3947 930v2l2 1-16 6-3 2-3 1h-6l4-2 3-1 5-1v-2l2-1 2-1 2-1z"/><path fill="#317100" d="M4368 798h1l1 17v8h-2l-2-8v-12l1 3z"/><path fill="#589400" d="M4187 1060h1v9l-1 6-1 16-1 3-1 4h-2z"/><path fill="#417700" d="M3423 851h1l5 35-2 2-3-24-1-3z"/><path fill="#cfd7d8" d="M3754 783h1v12l1 4 1 19-2 8h-1z"/><path fill="#2e6d00" d="M3047 1199h9l6 4-34 2-1-2h9l3-1h5l4-1z"/><path fill="#8da9a9" d="m3309 1003 2 2-2 2-15 20-1 2-2 2-4 5q2-7 7-13l1-2 10-13z"/><path fill="#518d00" d="m3194 510 2 1-27 27q0-3 2-5l2-2 8-9 9-9zm-138 694c-9 9-9 9-13 9h-2q1-4 4-7z"/><path fill="#5a9500" d="m4272 859 1 2 4 1-15 3h-7l-2 1-7-1h2v-2h8l2-1 7-1q4 1 7-2"/><path fill="#d9e1e1" d="m3867 500 2 1-12 11-2 2-2 2-5 1q8-10 19-17m-20 18v3Z"/><path fill="#406e4a" d="M4006 1800h6l-14 7-4 1-3 1-2 1-7 1v-2l8-1v-2l8-1v-2l8-1z"/><path fill="#97b0ba" d="M3411 866c3 10 3 10 1 15l-1 1 2 1-4 2-2-11h2z"/><path fill="#5f9a00" d="M3101 1310q6 2 11 6l2 3 9 9q-6-2-10-7l-10-8-2-2z"/><path fill="#154900" d="m3629 1072 2 1-18 18-2-1 6-7 2-2z"/><path fill="#839da9" d="m3990 907 4 1q-3 4-9 6l-3 2-4 1v-3l2-1 3-2 3-2z"/><path fill="#387800" d="m4018 916 1 2 2 1-5 8-1 2-2 2-1 2-4 5 7-17z"/><path fill="#b6c6ce" d="M3515 1623h10l8 1v2h-2l-10 1-6-2z"/><path fill="#2b2a29" d="m3961 612 2 1-17 17q0-5 5-8l2-3z"/><path fill="#d5dedf" d="M3889 491q-8 6-20 9l7-4v-2l3-1 5-2z"/><path fill="#4c6977" d="m3598 1502-6 3-3 2-5 1v-2l-4-1 7-2 4-1z"/><path fill="#68a200" d="M4197 1006h1l-1 15-1 2-1 5h-1v-11l2-6z"/><path fill="#270c0c" d="m3915 1352-1 5-4 2h-8c8-7 8-7 13-7"/><path fill="#a7bbc4" d="M3997 899v3q-7 6-15 9h-3q3-4 8-6z"/><path fill="#356b3a" d="m3981 1811-9 5h-2l-8 2v-2l7-2 2-1q4-2 10-2"/><path fill="#5f1819" d="m3959 1318 2 1-3 2-7 8-2-1 4-5-2 1h-6l7-3 2-1z"/><path fill="#65a200" d="m3296 1129 6 4-1 2-1-2q-6-2-12 0l-5 4q4-9 13-8"/><path fill="#619e00" d="m3034 1211 2 1q-1 5-6 6l-2 1-2 1-2 1q1-4 4-7l4-1z"/><path fill="#528e00" d="m3619 1116-11 7h-5l5-3 2-2q4-2 9-2m-14 8 1 2-2-1z"/><path fill="#346943" d="m3438 1828 11 3v2h5v2l2 1q-10-2-18-8"/><path fill="#559100" d="m4194 884-9 5-7 2v-3h2l7-4z"/><path fill="#387700" d="M3471 902q-9 5-20 6v-2l2-1 13-3z"/><path fill="#004500" d="m4099 1761 2 4q-5 3-12 2 4-4 10-6"/><path fill="#2c6e00" d="m2976 1210 2 1-3 4-2 2-6 4 7-9z"/><path fill="#639e00" d="M4201 980h1l-1 14-1 4-1 3h-1q0-11 3-21"/><path fill="#497961" d="M3856 1850q-8 4-17 4v-2c13-4 13-4 17-2"/><path fill="#5d9900" d="M3171 1381q8 4 12 11v2h-2v-2l-2-1-5-4-2-2z"/><path fill="#873536" d="M3899 1362q-9 4-18 3 8-4 18-3"/><path fill="#4c8b00" d="m2932 1259 4 1-2 2-1 5v8l-1 7h-1z"/><path fill="#629e00" d="M4202 705q4 4 4 8l1 3 1 3-4 1-1-5-1-2z"/><path fill="#245e00" d="m3533 1863 15 2v2c-11-1-11-1-15-3z"/><path fill="#4d8900" d="m4168 892 2 1-13 8-3-1 2-1 2-1 3-2 5-3z"/><path fill="#5f9b00" d="M2981 1233q-4 4-9 5l-2-2 4-2 2-1z"/><path fill="#7d929c" d="M3960 925v3l-7 3-2 1-2-1 3-3h3v-2z"/><path fill="#4b8800" d="M3623 654h1v18l-2 1-1-9h1z"/><path fill="#377700" d="M2966 1221v9l-1 3v2h2v4h-2l-1-8v-3z"/><path fill="#2f6d00" d="m2980 1218 2 1-12 12q0-5 4-8h2v-2z"/><path fill="#63a000" d="M3309 1149q3 5 2 9v5l-3 1z"/><path fill="#5b9800" d="M3644 1109q-7 4-14 4l2-1 1-3 4-1h3z"/><path fill="#438200" d="m3255 1103 2 6-4 9v-9l1-3z"/><path fill="#64a100" d="M4184 1085h2l-1 8-1 5h-2z"/><path fill="#256700" d="m4022 908 2 6-3 3-2 1z"/><path fill="#4f8c00" d="M4365 803q3 4 3 9l2 11h-2z"/><path fill="#246600" d="M3515 690v2l1 2 3 1-2 4-4 1z"/><path fill="#41724d" d="M3880 1843q-6 4-14 4v-2z"/><path fill="#6ca500" d="m3609 1778 13 1q-4 4-9 3v-2l-4-1z"/><path fill="#41694d" d="M4154 1733v3l-4 2-2 1-5 1v-2l6-1v-2z"/><path fill="#6ca400" d="m3705 1774 4 2-4 2-2 1h-5z"/><path fill="#dee4e3" d="m3798 1695-12 6 3-4 2-1 3-1z"/><path fill="#609d00" d="m2990 1226 2 1-2 4-6 1v-2z"/><path fill="#599500" d="M3658 1075h1v9l-2 8-2-4 2-3 1-5z"/><path fill="#226300" d="M3472 899v2h-13v-1z"/><path fill="#a4b9c2" d="M3411 866v9l-1 2-1 2-2-2v-3h2z"/><path fill="#8cbb00" d="M4267 713q8 0 16 3h-10l-4-1-2-1z"/><path fill="#467b5f" d="M3834 1854h4l-9 3h-4v-2z"/><path fill="#3a713e" d="M3944 1824q-6 4-13 4v-2z"/><path fill="#386948" d="m4062 1780-10 5-1-3 7-2z"/><path fill="#3c7b00" d="M3131 1149q6 1 11 6v2l-11-7z"/><path fill="#286a00" d="M3124 1143q5 1 9 6-5 0-9-5z"/><path fill="#629c00" d="m3601 1124 2 1-3 4-2 1q-2 3-5 2l1-3 2 1 1-3z"/><path fill="#dae1e1" d="m3163 923 3 2-1 8-2-4z"/><path fill="#c2c8c8" d="m3229 691 1 4-4 4h-2z"/><path fill="#cbd6d9" d="m3635 1625-1 2h-11q6-3 12-2"/><path fill="#235c00" d="M3290 1138h2zq-3 1-4 5l-5 4c4-9 4-9 9-9"/><path fill="#627f82" d="m4096 799 1 3-1 2 2 1-5 5z"/><path fill="#2e6232" d="M3420 1819q5 1 9 5l-9-3z"/><path fill="#ab4c4e" d="m3768 1584-1 2-5 1h-4l1-3q5-2 9 0"/><path fill="#5e9900" d="m3123 1328 4 3 1 1q3 2 2 5l-3-3-2-1q-2-2-2-5"/><path fill="#65a100" d="m3282 1137 3 3-2 4h-2z"/><path fill="#8abe00" d="M3648 1108v2c-4 4-4 4-8 4v-2c5-4 5-4 8-4"/><path fill="#80939c" d="m3946 930 1 2 2 1-9 3 1-3h4z"/><path fill="#88a0ab" d="M3964 921h2l-1 4-5 2v-3h3z"/><path fill="#559100" d="M3471 895h6v3h-5z"/><path fill="#3e7800" d="M3425 869q4 3 4 8l-3 1z"/><path fill="#337200" d="m4296 844 4 4-1 2-6-3 3-1z"/></svg>