<svg xmlns="http://www.w3.org/2000/svg" width="868" height="570"><path fill="#fcd901" d="M53 47h89q7-1 12 3 6 8 7 17l3 9 4 10 1 3 18 54 5 14 15 44 8 24 13 36 4 13 1 3 1 4 3 6 9 2 8-53 1-13 2-16 2-19 3-20 2-21 2-17 2-19 1-8 2-19 4-30q-1-4 2-6l8-1h92q6-1 12 2v2h2l1 2 5 17 6 18 12 36 1 2 30 92 5 17 3 9 5 14q3 13 10 25h7c11-14 6-48 6-65V97l-1-22V65q0-8 2-15 6-4 13-3h167c30 0 30 0 45 3h2q28 6 51 23v2l5 2v2l2 1c11 6 18 19 25 29l2 2 5 10c20 43 21 96 7 141l-1 3q-3 12-10 22l-2 4q-5 10-12 19l-2 2-15 17-3 1-1 3-3 3-2 1-2 2-3 2c-13 9-13 9-18 9q2 8 7 15l8 14 8 14 9 15 28 48 1 2 2 3 36 61c5 8 5 8 5 12l-4 4-21 1h-3l-75-1h-3q-7 0-14-3v-2h-2l-1-2-22-42-17-30-1-3-7-14-7-11-30-56-1-2-2-7h-2l-1-3-4-4-11-1h-9l-3 1v170q-2 5-6 8l-8 1H473q-9 1-16-3-6-6-7-15l-2-5-18-47-7-18-1-2-2-5-9-24-23-60-13-34-6-16-1-2-10-26-1-2-3-11h-2v-2l-1-2v-3l-1-2-3-1-1-2-2 20v247q0 8-5 13-5 3-11 2h-78l-12 1c-23 1-23 1-29-4l-6-12-8-23-6-16-5-13-15-43-25-69-5-13-1-2v-2l-2-5-1-6-2-1-1-4-6-16-8-23-1-2-1-5-8-20-3-10-7-19-14-39-10-26-1-4L35 50q8-4 18-3m543 114v10l2 76 55-2q9-1 17-7l2-1q6-5 9-12l1-2q9-17 4-35c-2-7-6-16-12-19l-2-1-3-3-4-2-2-1c-12-6-30-3-43-3h-16c-5 0-5 0-8 2"/><path fill="#fdfbe7" d="M53 47h89q7-1 12 3 6 8 7 17l3 9 4 10 1 3 18 54 5 14 15 44 8 24 13 36 4 13 1 3 1 4 3 6 9 2 8-53 1-13 2-16 2-19 3-20 2-21 2-17 2-19 1-8 2-19 4-30q-1-4 2-6l8-1h92q6-1 12 2v2h2l1 2 5 17 6 18 12 36 1 2 30 92 5 17 3 9 5 14q3 13 10 25h7c11-14 6-48 6-65V97l-1-22V65q0-8 2-15 6-4 13-3h167c30 0 30 0 45 3h2q28 6 51 23v2l5 2v2l2 1c11 6 18 19 25 29l2 2 5 10c20 43 21 96 7 141l-1 3q-3 12-10 22l-2 4q-5 10-12 19l-2 2-15 17-3 1-1 3-3 3-2 1-2 2-3 2c-13 9-13 9-18 9q2 8 7 15l8 14 8 14 9 15 28 48 1 2 2 3 36 61c5 8 5 8 5 12l-4 4-21 1h-36l-18-1h-34v-1h2l96-1h8l3-1q1-6-3-11l-26-43-67-115-1-2-3-5-1-2-1-2v-6l8-4q11-5 20-14l2-2q42-41 50-98v-2a175 175 0 0 0-33-135l-2-5-2-1-9-8q-10-9-24-15l-3-1q-11-6-23-9l-3-1q-21-4-42-3H485v3l-1 197c0 29 0 29-7 36h-9c-7-5-9-17-11-25l-24-73-1-4-10-31-1-2-1-3-22-66-1-4-3-10c-3-10-3-10-8-18H278l-9 81-1 3-17 143c-1 11-1 11-5 15h-8q-6-7-8-15l-1-4-35-103-28-80c-5-21-5-21-15-40H38v4l1 2 1 6 1 3 1 2 1 3 9 23 1 3v7l-9-23-1-3-4-11-1-2-3-7v-6l2-4z"/><path fill="#fefef6" d="M609 355h3c9 0 9 0 12 3l4 7 28 53 2 2 10 20-1 2-7-10-2-4-1-3-28-52-2-7h-2l-1-3-4-4-11-1h-9l-3 1v170q-1 5-6 8l-8 1H473q-9 1-16-3-6-6-7-15l-2-5-18-47-7-18 2-1 28 73 2 3 1 3q1 4 6 7l12 1h113q4-1 6-5l1-7V361c0-8 9-6 15-6"/><path fill="#fdfae8" d="M54 104q4 5 5 9l48 134 8 23 3 9 29 81 1 3 54 148 1 3 1 5c3 9 3 9 10 16l13 1 35 1v1l-20 1c-27 1-27 1-33-4l-6-12-8-23-6-16-5-13-15-43-25-69-5-13-1-2v-2l-2-5-1-6-2-1-1-4-6-16-8-22-1-3-1-5-8-20-3-10-7-19-14-39-10-26-1-4-20-57z"/><path fill="#fefef8" d="M347 252q3 1 5 4l1 3 1 4 4 11 15 39 1 2c2 6 2 6 1 9a403 403 0 0 1-21-56h-2v-2l-1-2v-3l-1-2-3-1-1-2-2 20v247q0 8-5 13-5 3-11 2h-60v-1h2l48-1c10 1 10 1 19-2q4-4 3-9v-20l1-89V271c0-19 0-19 6-19"/><path fill="#fefefa" d="M601 157h39l4-1q19 1 33 13 13 13 13 30 0 21-13 36a57 57 0 0 1-41 14h-38l-4-2v-82q-1-9 7-8m-5 4v76q0 6 2 10l55-2q9-1 17-7l2-1q6-5 9-12l1-2q9-17 4-35c-2-7-6-16-12-19l-2-1-3-3-4-2-2-1c-12-6-30-3-43-3h-16c-5 0-5 0-8 2"/><path fill="#fefef9" d="M498 47h182v2h-3l-181 1h-3l-8 1-1 10v2l-1 23v36h-1l-1-58v-4q0-7 4-12z"/><path fill="#fdfcf0" d="m758 398 5 7 2 2 1 2 27 47 1 2 2 3 36 61c5 8 5 8 5 12l-4 4-21 1h-36l-18-1h-34v-1h2l96-1h8l3-1q1-6-3-11l-26-43-32-55-1-1-9-15-1-2-1-2-1-2z"/><path fill="#fdf7b9" d="M685 48h6l19 2q28 6 51 23v2l5 2v2l-8-4q-20-14-43-20l-3-1q-21-4-42-3h-39l-143-1v-1l190-1z"/><path fill="#fdfbe6" d="M608 157h25c18-1 31 0 44 12q13 13 13 30 0 21-13 36-7 8-18 11l-2 1q-12 2-25 2h-14v-1l32-1v-2h2q16-3 26-16l2-4 1-2q9-17 4-35-2-8-8-14l-1-4-5-2v-2l-3-1-5-2c-11-6-22-5-33-5h-22z"/><path fill="#f9eec2" d="M423 449h2l28 73 2 3 1 3q1 4 6 7l12 1h110v1l-71 1h-43q-7 0-13-3-6-6-7-15l-2-5-14-36-5-13-5-14z"/><path fill="#fefef8" d="M53 47h94l4 2H38l1 11 1 2 1 3 1 2 4 12 5 14 1 3 1 3v5l-9-23-1-3-4-11-1-2-3-7v-6l2-4z"/><path fill="#f7db40" d="M44 50h107l-1 3H42l-4-2z"/><path fill="#edc609" d="M729 533h6l85 1h8l5 2q-3 2-5 1H726l-4-2q3-3 7-2"/><path fill="#fef9cf" d="M285 47h97l4 1v2H279v-2z"/><path fill="#f0d01c" d="M495 50h178c28 0 28 0 41 4l3 1 7 2v1l-8 1v-2h-3l-11-1-9-2-3-1h-2v-1H494l-9 1v-2q4-2 10-1"/><path fill="#fcf5ca" d="M347 252q3 1 5 4l1 3 1 4 4 11 7 18 1 2 7 19 1 2c2 6 2 6 1 9a403 403 0 0 1-21-56h-2v-2l-1-2v-3l-1-2-3-1-3-3-1 21v24l-1 86h-1V272c0-20 0-20 6-20"/><path fill="#fdfae7" d="m376 324 4 6 1 2v3l2 2 33 87 1 3 3 7 1 3 1 3 2 8q-4-3-5-7l-1-3-1-3-1-3-28-73-2-3-5-15-1-3q-4-6-4-14"/><path fill="#f7d81f" d="m664 245 2 1q-12 5-25 5v2h-44v-4h28c18 0 18 0 34-4z"/><path fill="#fdfbea" d="m668 442 8 12 2 5 2 3 7 12 27 52 2 3q3 5 8 7h-5l-2-1v-2h-2l-23-44-13-23-4-7-2-5-2-3-1-2-1-2z"/><path fill="#fefbea" d="M622 358h2l44 82-1 2-7-10-2-4-1-3-27-50-1-2-2-7h-2z"/><path fill="#fcf4cd" d="M608 157h25c19-1 32 1 46 14l4 5-1 4-3-4-2-2-1-4-5-2v-2l-3-1-5-2c-11-6-22-5-33-5h-22z"/><path fill="#f4cc01" d="M339 433h1v97q0 3-3 5l-2-1 2-7h1z"/><path fill="#f1d217" d="M284 50h100v1H282v2h-4v-2z"/><path fill="#fcf9e5" d="M36 51h2v3l4 14 1 3 5 14 1 3 3 6 1 3v7l-9-23-1-3-5-13c-3-8-3-8-2-14"/><path fill="#f9df39" d="M689 51q18-1 35 6v1l-8 1v-2h-3l-11-1-9-2-3-1h-2z"/><path fill="#f4d214" d="m163 81 7 16 1 4 1 3 1 3v7-2h-2l-1 2q-4-10-5-21l-1-4h-3l1-2z"/><path fill="#f9db21" d="m462 278 4 6q4 3 9 2l5-2 2 1v2h-2l-1 2-3 3c-8 0-8 0-11-2q-3-2-3-6z"/><path fill="#f5d71d" d="M725 58q12 3 22 9l-6 2-9-4-10-4z"/><path fill="#ecca31" d="m178 125 5 12 1 2 8 24 1 3 1 4 1 2v6l-1-5-3-1v-3l-5-17-4-12-3-9z"/><path fill="#f7d71b" d="m752 70 5 3 3 2 5 5-1 4h-2v-2h-2v-2l-2-1-6-4h2v-2h-6l-4-4q5-2 8 1"/><path fill="#fdf9de" d="M277 48h2l1 3h-2l-4 37h-1l1-18c0-19 0-19 3-22"/><path fill="#f6d511" d="M774 89h2l5 7 2 1 3 5-1 2-3 1-1-3-3-3-2-2v-2h-2z"/><path fill="#f6d512" d="m234 288 2 2 5 3h3l2 4h-10v-2h-2l-2-6z"/><path fill="#f5d310" d="m220 249 4 8 1 3v6l-1-1-2 2q-3-5-3-11h2z"/><path fill="#f6da2d" d="m664 245 2 1q-9 5-19 5l1-3 7-2 4-1z"/><path fill="#ecca28" d="M424 161q4 6 6 14l1 3 1 2 1 3-1 4-1-4h-3l-1 2v-5h2l-2-9h-2l-1 4z"/><path fill="#f0cc11" d="m639 386 4 2 3 2q3 5 2 12-4-3-6-9l-2-3z"/><path fill="#f1cf20" d="M416 137q4 5 5 12l1 2 1 3 1 2-1 4-4-13h-3v-3h-2l-1-3 2-1z"/><path fill="#f5d516" d="m808 487 7 10-2 4-4-2z"/><path fill="#f7da1f" d="m675 236 3 1q-2 6-7 8l-7-1 6-4 2-2 1-1z"/><path fill="#ecc929" d="M262 185h1v19l-2 6-2 8v-15z"/><path fill="#f2ce11" d="M130 312q6 1 6 4l-1 10-4-6v-3z"/><path fill="#f6d711" d="M796 467q4 3 5 8l-3 2-3-2-1-7z"/><path fill="#f3d529" d="M705 53q10 1 19 4v1l-8 1v-2h-7l1-2-5-1z"/><path fill="#f3d116" d="M200 190q4 6 5 13l-2 5h-2v-3l-1-7h2l-1-2z"/><path fill="#f2d019" d="M151 51q5 3 5 8l1 3v5l-1-1-2 2-2-6h2z"/><path fill="#f6d612" d="M741 373q4 4 6 10l-4 1-1-5-3-1z"/><path fill="#faf7d2" d="M248 283h2l-1 4-1 3-2 3h-8l-3-4 2 1 9 1v-3z"/><path fill="#eec91a" d="M188 156q4 3 4 7l1 3 1 2 1 3 1 2-1 5-1-5-3-1v-3l-1-7-1-3z"/><path fill="#f2cc10" d="m705 508 6 1v3l1 1-1 5h-2l-2-4-1-2z"/><path fill="#f5d20c" d="m38 52 7 1-5 8q-4-3-3-8z"/><path fill="#f3d21d" d="M216 237q4 4 4 8l-1 4-3 1z"/><path fill="#efcd22" d="M776 433q6 6 9 13l-1 2-3-6h-2v-3l-3 1-1-3h2z"/><path fill="#f2d015" d="M483 269h1v8h2l-3 6-3 1z"/><path fill="#f7d615" d="m766 81 7 6-1 3h-3l-4-6z"/><path fill="#f4d316" d="M175 116q4 8 3 15l-1 2q-4-5-3-11l2 1z"/><path fill="#f0cf1d" d="M406 107q4 4 4 8v3l1 3h-2l-1-7-3 1z"/><path fill="#f0cb14" d="m451 515 5 1-1 9-4-7zm2 1 1 2Z"/><path fill="#f5d310" d="M747 383c4 5 4 5 5 9l-6-1-1-4h2z"/><path fill="#fae130" d="m244 293 2 4h-8l-1-3z"/><path fill="#f5d412" d="m462 278 5 7-1 5-4-4z"/><path fill="#faf4d5" d="M263 166h1l-1 18h-1c-2-13-2-13 1-18"/><path fill="#e7bf16" d="m666 161 8 4 5 1v5c-10-6-10-6-13-10"/><path fill="#fdf9e2" d="M157 63q3 1 5 4l1 12-4-9-1-3z"/><path fill="#ecc915" d="M432 466q4 3 4 7l2 1-1 5q-5-6-5-13m3 0h2l-1 3z"/><path fill="#f6d311" d="M785 448c4 5 4 5 5 9l-5-1z"/><path fill="#eac40f" d="m789 293 1 2-6 9-2-4h3l-1-3z"/><path fill="#f3d217" d="m402 94 4 11q-6-2-6-5v-2h2z"/><path fill="#fefefe" d="m236 287 10 2v2h-8z"/><path fill="#fcf8da" d="M679 228h2q-2 7-8 10 2-6 6-10"/><path fill="#f2d01b" d="M820 508q5 4 6 10h-4z"/><path fill="#fefbdf" d="M599 157h9v1h-10l-2 4-2 1q0-7 5-6"/><path fill="#edc607" d="M339 523h1v7q0 3-3 5l-2-1z"/><path fill="#f1cf1c" d="m443 219 4 11-2-1v-2l-4 2z"/><path fill="#fcf7d6" d="M715 54h8l6 4h-5l-3-1-3-1-3-1z"/><path fill="#eeca16" d="M146 357h3v3l2 7-2 1-1-4-1-2z"/><path fill="#f9db10" d="m595 248 2 1 5 1h5v1h-10v2h-3z"/><path fill="#fcf9e0" d="M815 498h3q4 4 3 10-4-4-6-10"/><path fill="#f6da2c" d="M689 51h9l-2 1v2l-8-1z"/><path fill="#f6d50e" d="m733 364 5 2 2 5-6-2z"/><path fill="#fadb0e" d="M714 57h2v2l9-1q-3 4-5 3l-6-1z"/><path fill="#f8d70b" d="m729 358 5 1-1 5h-2v-3h-2z"/><path fill="#f3d117" d="m427 180 4 1 2 6-2-1v-3h-3l-1 2z"/><path fill="#efcd1b" d="m82 175 3 1-1 7-2-1-1-6z"/><path fill="#edc91e" d="M809 159q3 5 2 11l-3-1z"/><path fill="#fbde14" d="m737 63 1 4-8-4z"/><path fill="#fdfae2" d="m339 532 1 3-4 2h-6v-1l3-1z"/><path fill="#f6d50e" d="M773 428q4 2 4 6v3h-2q-2-1-2-6z"/><path fill="#fcf6d9" d="m415 424 4 10-3-1z"/><path fill="#fbf6d9" d="m769 420 4 1 1 7z"/><path fill="#f3d119" d="M755 397c4 5 4 5 4 8h-3l1-4-3-1z"/><path fill="#fcf9e5" d="M248 283h2l-2 8h-2z"/><path fill="#efcc14" d="m136 328 3 2v7q-4-4-3-9"/><path fill="#fefdf3" d="m112 268 4 4v6c-4-6-4-6-4-10"/><path fill="#fdf8da" d="M72 154q4 4 4 9-4-3-5-7z"/><path fill="#f0d01e" d="m799 127 3 4-1 3-1-1-2 2z"/></svg>