<?xml version="1.0" encoding="UTF-8"?>
<svg version="1.1" xmlns="http://www.w3.org/2000/svg" width="139" height="139">
<path d="M0 0 C27.06 0 54.12 0 82 0 C82.495 12.375 82.495 12.375 83 25 C83.33 25.33 83.66 25.66 84 26 C84.07258946 28.18639453 84.08373783 30.37500389 84.0625 32.5625 C84.05347656 33.76003906 84.04445313 34.95757812 84.03515625 36.19140625 C84.02355469 37.11824219 84.01195313 38.04507813 84 39 C85.93166016 38.98259766 85.93166016 38.98259766 87.90234375 38.96484375 C89.58072772 38.9554673 91.25911326 38.94636695 92.9375 38.9375 C93.78763672 38.92912109 94.63777344 38.92074219 95.51367188 38.91210938 C96.32255859 38.90888672 97.13144531 38.90566406 97.96484375 38.90234375 C98.7137085 38.89710693 99.46257324 38.89187012 100.23413086 38.88647461 C102 39 102 39 103 40 C103.07319621 42.69654854 103.09242537 45.36691458 103.0625 48.0625 C103.05798828 48.82111328 103.05347656 49.57972656 103.04882812 50.36132812 C103.0370068 52.24091871 103.01907078 54.12046899 103 56 C105.97 56 108.94 56 112 56 C112 51.38 112 46.76 112 42 C120.91 42 129.82 42 139 42 C139 73.68 139 105.36 139 138 C112.93 138 86.86 138 60 138 C60 131.4 60 124.8 60 118 C59.01 117.67 58.02 117.34 57 117 C57 111.72 57 106.44 57 101 C52.10846529 101.0395679 52.10846529 101.0395679 47.21704102 101.09008789 C45.47778283 101.09724913 43.73854696 101.05024702 42 101 C41 100 41 100 40.90234375 96.40234375 C40.9090178 94.91403133 40.92097817 93.42573568 40.9375 91.9375 C40.94201172 91.17888672 40.94652344 90.42027344 40.95117188 89.63867188 C40.9629932 87.75908129 40.98092922 85.87953101 41 84 C36.71 84 32.42 84 28 84 C28 84.66 28 85.32 28 86 C18.76 86 9.52 86 0 86 C0 57.62 0 29.24 0 0 Z " fill="#EAE9E8" transform="translate(0,1)"/>
<path d="M0 0 C16.17 0 32.34 0 49 0 C49 4.62 49 9.24 49 14 C55.27 14 61.54 14 68 14 C68 19.61 68 25.22 68 31 C73.61 31 79.22 31 85 31 C85 48.16 85 65.32 85 83 C67.51 83 50.02 83 32 83 C32 77.39 32 71.78 32 66 C26.72 66 21.44 66 16 66 C16 60.39 16 54.78 16 49 C10.72 49 5.44 49 0 49 C0 32.83 0 16.66 0 0 Z " fill="#FE9E51" transform="translate(29,31)"/>
<path d="M0 0 C6.6 0 13.2 0 20 0 C20 28.71 20 57.42 20 87 C-4.09 87 -28.18 87 -53 87 C-53 80.73 -53 74.46 -53 68 C-35.51 68 -18.02 68 0 68 C0 45.56 0 23.12 0 0 Z " fill="#2C2C2E" transform="translate(117,48)"/>
<path d="M0 0 C24.42 0 48.84 0 74 0 C74 6.6 74 13.2 74 20 C56.18 20 38.36 20 20 20 C20 38.81 20 57.62 20 77 C13.4 77 6.8 77 0 77 C0 51.59 0 26.18 0 0 Z " fill="#2E2E30" transform="translate(3,6)"/>
<path d="M0 0 C16.83 0 33.66 0 51 0 C51 16.5 51 33 51 50 C34.17 50 17.34 50 0 50 C0 33.5 0 17 0 0 Z " fill="#FF7B23" transform="translate(62,63)"/>
<path d="M0 0 C16.17 0 32.34 0 49 0 C49 4.62 49 9.24 49 14 C55.27 14 61.54 14 68 14 C68 14.33 68 14.66 68 15 C51.17 15 34.34 15 17 15 C17 31.83 17 48.66 17 66 C16.67 66 16.34 66 16 66 C16 60.39 16 54.78 16 49 C10.72 49 5.44 49 0 49 C0 32.83 0 16.66 0 0 Z " fill="#FEC577" transform="translate(29,31)"/>
</svg>
