<svg xmlns="http://www.w3.org/2000/svg" width="360" height="118"><path fill="#fff" d="m195 19 3 1 1-5h21v89h-21l-1-5-6 2q-17 6-35-1-17-9-24-26-5-19 4-37 10-16 28-21 16-3 30 3m-39 28q-4 8-3 17 3 10 11 15 9 5 18 2 10-3 15-13 3-8 0-17-5-9-14-13-16-4-27 9"/><path fill="#fff" d="M95 1h4q19-1 34 12l4 3-3 7-2 2-1 2-1 2-4 5q-4 0-7-4-11-8-26-8-14 2-25 11-10 13-10 29 2 16 12 26 16 11 34 8 10-1 17-10l5-1 3 3 1 2 2 2 1 2c4 6 4 6 4 9a56 56 0 0 1-41 15h-4q-23 1-40-17a62 62 0 0 1-12-65l1-3Q53 11 77 2q9-2 18-1m179 14h9l10 2v39q0 12 8 20 9 6 19 5 10-3 16-13l1-7 1-46h21v48q0 17-13 29-15 13-34 12-17-1-30-15-12-17-11-38V18q-1-4 3-3m-39 0h21q2 3 1 7v75l-1 7h-21zM0 15h21v89H0z"/></svg>